<mxfile host="app.diagrams.net" modified="2024-04-19T01:56:35.758Z" agent="Mozilla/5.0 (X11; Linux x86_64) AppleWebKit/537.36 (KHTML, like Gecko) Chrome/124.0.0.0 Safari/537.36" etag="zynItimKetToHKadsbb6" version="24.2.5" type="github">
  <diagram name="Page-1" id="52a04d89-c75d-2922-d76d-85b35f80e030">
    <mxGraphModel dx="5505" dy="2458" grid="1" gridSize="10" guides="1" tooltips="1" connect="1" arrows="1" fold="1" page="1" pageScale="1" pageWidth="1100" pageHeight="850" background="none" math="0" shadow="0">
      <root>
        <mxCell id="0" />
        <mxCell id="1" parent="0" />
        <mxCell id="3csDo20T_HW6M1ZZTiB5-7" value="" style="edgeStyle=orthogonalEdgeStyle;rounded=0;orthogonalLoop=1;jettySize=auto;html=1;" edge="1" parent="1" source="6sU9U3ZxSKF4zSMgwB_Y-1" target="3csDo20T_HW6M1ZZTiB5-6">
          <mxGeometry relative="1" as="geometry" />
        </mxCell>
        <mxCell id="6sU9U3ZxSKF4zSMgwB_Y-1" value="" style="points=[[0.35,0,0],[0.98,0.51,0],[1,0.71,0],[0.67,1,0],[0,0.795,0],[0,0.65,0]];verticalLabelPosition=bottom;sketch=0;html=1;verticalAlign=top;aspect=fixed;align=center;pointerEvents=1;shape=mxgraph.cisco19.user;fillColor=#005073;strokeColor=none;" parent="1" vertex="1">
          <mxGeometry x="350" y="324" width="101" height="101" as="geometry" />
        </mxCell>
        <mxCell id="6sU9U3ZxSKF4zSMgwB_Y-2" value="&lt;font face=&quot;Comic Sans MS&quot; style=&quot;font-size: 24px;&quot;&gt;Users&lt;/font&gt;" style="text;strokeColor=none;align=center;fillColor=none;html=1;verticalAlign=middle;whiteSpace=wrap;rounded=0;" parent="1" vertex="1">
          <mxGeometry x="355.5" y="410" width="90" height="30" as="geometry" />
        </mxCell>
        <mxCell id="3csDo20T_HW6M1ZZTiB5-3" style="edgeStyle=orthogonalEdgeStyle;rounded=0;orthogonalLoop=1;jettySize=auto;html=1;" edge="1" parent="1" source="3csDo20T_HW6M1ZZTiB5-1" target="6sU9U3ZxSKF4zSMgwB_Y-1">
          <mxGeometry relative="1" as="geometry" />
        </mxCell>
        <mxCell id="3csDo20T_HW6M1ZZTiB5-56" style="edgeStyle=orthogonalEdgeStyle;rounded=0;orthogonalLoop=1;jettySize=auto;html=1;entryX=0.5;entryY=0;entryDx=0;entryDy=0;" edge="1" parent="1">
          <mxGeometry relative="1" as="geometry">
            <mxPoint x="20.05499999999938" y="410" as="sourcePoint" />
            <mxPoint x="20.050000000000182" y="760" as="targetPoint" />
          </mxGeometry>
        </mxCell>
        <mxCell id="3csDo20T_HW6M1ZZTiB5-1" value="" style="image;aspect=fixed;perimeter=ellipsePerimeter;html=1;align=center;shadow=0;dashed=0;spacingTop=3;image=img/lib/active_directory/internet_cloud.svg;" vertex="1" parent="1">
          <mxGeometry x="30" y="340" width="111.11" height="70" as="geometry" />
        </mxCell>
        <mxCell id="3csDo20T_HW6M1ZZTiB5-2" value="&lt;font face=&quot;Comic Sans MS&quot; style=&quot;font-size: 18px;&quot;&gt;Internet&lt;/font&gt;" style="text;strokeColor=none;align=center;fillColor=none;html=1;verticalAlign=middle;whiteSpace=wrap;rounded=0;" vertex="1" parent="1">
          <mxGeometry x="20" y="410" width="120" height="30" as="geometry" />
        </mxCell>
        <mxCell id="3csDo20T_HW6M1ZZTiB5-4" value="&lt;font style=&quot;font-size: 18px;&quot; face=&quot;Comic Sans MS&quot;&gt;Public Connection&lt;/font&gt;" style="text;strokeColor=none;align=center;fillColor=none;html=1;verticalAlign=middle;whiteSpace=wrap;rounded=0;" vertex="1" parent="1">
          <mxGeometry x="141.11" y="330" width="210" height="30" as="geometry" />
        </mxCell>
        <mxCell id="3csDo20T_HW6M1ZZTiB5-12" value="" style="edgeStyle=orthogonalEdgeStyle;rounded=0;orthogonalLoop=1;jettySize=auto;html=1;" edge="1" parent="1">
          <mxGeometry relative="1" as="geometry">
            <mxPoint x="920" y="253.25" as="sourcePoint" />
            <mxPoint x="920" y="138.5" as="targetPoint" />
          </mxGeometry>
        </mxCell>
        <mxCell id="3csDo20T_HW6M1ZZTiB5-18" value="" style="edgeStyle=orthogonalEdgeStyle;rounded=0;orthogonalLoop=1;jettySize=auto;html=1;" edge="1" parent="1" source="3csDo20T_HW6M1ZZTiB5-6" target="3csDo20T_HW6M1ZZTiB5-17">
          <mxGeometry relative="1" as="geometry" />
        </mxCell>
        <mxCell id="3csDo20T_HW6M1ZZTiB5-6" value="" style="rhombus;whiteSpace=wrap;html=1;verticalAlign=top;sketch=0;pointerEvents=1;rounded=1;" vertex="1" parent="1">
          <mxGeometry x="740" y="253.25" width="280" height="243.5" as="geometry" />
        </mxCell>
        <mxCell id="3csDo20T_HW6M1ZZTiB5-9" value="&lt;font face=&quot;Comic Sans MS&quot;&gt;&lt;span style=&quot;font-size: 18px;&quot;&gt;Policy Enforcerment Point&amp;nbsp;&lt;/span&gt;&lt;/font&gt;" style="text;strokeColor=none;align=center;fillColor=none;html=1;verticalAlign=middle;whiteSpace=wrap;rounded=0;" vertex="1" parent="1">
          <mxGeometry x="800" y="364.5" width="180" height="20" as="geometry" />
        </mxCell>
        <mxCell id="3csDo20T_HW6M1ZZTiB5-16" style="edgeStyle=orthogonalEdgeStyle;rounded=0;orthogonalLoop=1;jettySize=auto;html=1;entryX=0.5;entryY=0;entryDx=0;entryDy=0;" edge="1" parent="1">
          <mxGeometry relative="1" as="geometry">
            <mxPoint x="840" y="138.5" as="sourcePoint" />
            <mxPoint x="840" y="253.25" as="targetPoint" />
          </mxGeometry>
        </mxCell>
        <mxCell id="3csDo20T_HW6M1ZZTiB5-11" value="" style="ellipse;whiteSpace=wrap;html=1;verticalAlign=top;sketch=0;pointerEvents=1;rounded=1;" vertex="1" parent="1">
          <mxGeometry x="780" y="-10" width="200" height="148.5" as="geometry" />
        </mxCell>
        <mxCell id="3csDo20T_HW6M1ZZTiB5-13" value="&lt;font face=&quot;Comic Sans MS&quot;&gt;&lt;span style=&quot;font-size: 18px;&quot;&gt;Authenication, Authorization, Accounting Policy Processs&lt;/span&gt;&lt;/font&gt;" style="text;strokeColor=none;align=center;fillColor=none;html=1;verticalAlign=middle;whiteSpace=wrap;rounded=0;" vertex="1" parent="1">
          <mxGeometry x="790" y="54.25" width="180" height="20" as="geometry" />
        </mxCell>
        <mxCell id="3csDo20T_HW6M1ZZTiB5-15" value="&lt;font style=&quot;font-size: 18px;&quot; face=&quot;Comic Sans MS&quot;&gt;Untrusted Connection Layer 1&lt;/font&gt;" style="text;strokeColor=none;align=center;fillColor=none;html=1;verticalAlign=middle;whiteSpace=wrap;rounded=0;" vertex="1" parent="1">
          <mxGeometry x="480" y="324" width="210" height="30" as="geometry" />
        </mxCell>
        <mxCell id="3csDo20T_HW6M1ZZTiB5-24" style="edgeStyle=orthogonalEdgeStyle;rounded=0;orthogonalLoop=1;jettySize=auto;html=1;" edge="1" parent="1" source="3csDo20T_HW6M1ZZTiB5-17" target="3csDo20T_HW6M1ZZTiB5-23">
          <mxGeometry relative="1" as="geometry" />
        </mxCell>
        <mxCell id="3csDo20T_HW6M1ZZTiB5-17" value="" style="rhombus;whiteSpace=wrap;html=1;verticalAlign=top;sketch=0;pointerEvents=1;rounded=1;" vertex="1" parent="1">
          <mxGeometry x="775" y="658.5" width="210" height="161.5" as="geometry" />
        </mxCell>
        <mxCell id="3csDo20T_HW6M1ZZTiB5-20" style="edgeStyle=orthogonalEdgeStyle;rounded=0;orthogonalLoop=1;jettySize=auto;html=1;entryX=0.5;entryY=1;entryDx=0;entryDy=0;" edge="1" parent="1" source="3csDo20T_HW6M1ZZTiB5-19" target="6sU9U3ZxSKF4zSMgwB_Y-2">
          <mxGeometry relative="1" as="geometry" />
        </mxCell>
        <mxCell id="3csDo20T_HW6M1ZZTiB5-19" value="&lt;font face=&quot;Comic Sans MS&quot;&gt;&lt;span style=&quot;font-size: 18px;&quot;&gt;Access&lt;/span&gt;&lt;/font&gt;" style="text;strokeColor=none;align=center;fillColor=none;html=1;verticalAlign=middle;whiteSpace=wrap;rounded=0;" vertex="1" parent="1">
          <mxGeometry x="800" y="729.25" width="180" height="20" as="geometry" />
        </mxCell>
        <mxCell id="3csDo20T_HW6M1ZZTiB5-21" value="&lt;font face=&quot;Comic Sans MS&quot; style=&quot;font-size: 18px;&quot;&gt;No&lt;/font&gt;" style="text;strokeColor=none;align=center;fillColor=none;html=1;verticalAlign=middle;whiteSpace=wrap;rounded=0;" vertex="1" parent="1">
          <mxGeometry x="530" y="690" width="160" height="30" as="geometry" />
        </mxCell>
        <mxCell id="3csDo20T_HW6M1ZZTiB5-23" value="" style="sketch=0;pointerEvents=1;shadow=0;dashed=0;html=1;strokeColor=none;labelPosition=center;verticalLabelPosition=bottom;verticalAlign=top;outlineConnect=0;align=center;shape=mxgraph.office.security.lock_protected;fillColor=#2072B8;" vertex="1" parent="1">
          <mxGeometry x="810.5" y="1010" width="139" height="130" as="geometry" />
        </mxCell>
        <mxCell id="3csDo20T_HW6M1ZZTiB5-25" value="&lt;font face=&quot;Comic Sans MS&quot; style=&quot;font-size: 18px;&quot;&gt;Yes&lt;/font&gt;" style="text;strokeColor=none;align=center;fillColor=none;html=1;verticalAlign=middle;whiteSpace=wrap;rounded=0;" vertex="1" parent="1">
          <mxGeometry x="790" y="890" width="90" height="30" as="geometry" />
        </mxCell>
        <mxCell id="3csDo20T_HW6M1ZZTiB5-29" style="edgeStyle=orthogonalEdgeStyle;rounded=0;orthogonalLoop=1;jettySize=auto;html=1;entryX=0.5;entryY=0;entryDx=0;entryDy=0;" edge="1" parent="1" source="3csDo20T_HW6M1ZZTiB5-23">
          <mxGeometry relative="1" as="geometry">
            <mxPoint x="834.5700000000003" y="1180" as="sourcePoint" />
            <mxPoint x="834.5700000000003" y="1480" as="targetPoint" />
            <Array as="points">
              <mxPoint x="835" y="1310" />
            </Array>
          </mxGeometry>
        </mxCell>
        <mxCell id="3csDo20T_HW6M1ZZTiB5-26" value="&lt;font face=&quot;Comic Sans MS&quot; style=&quot;font-size: 18px;&quot;&gt;VPN&lt;/font&gt;" style="text;strokeColor=none;align=center;fillColor=none;html=1;verticalAlign=middle;whiteSpace=wrap;rounded=0;" vertex="1" parent="1">
          <mxGeometry x="800" y="1150" width="160" height="30" as="geometry" />
        </mxCell>
        <mxCell id="3csDo20T_HW6M1ZZTiB5-28" style="edgeStyle=orthogonalEdgeStyle;rounded=0;orthogonalLoop=1;jettySize=auto;html=1;" edge="1" parent="1">
          <mxGeometry relative="1" as="geometry">
            <mxPoint x="930.0000000000002" y="1480" as="sourcePoint" />
            <mxPoint x="930.0000000000002" y="1140" as="targetPoint" />
          </mxGeometry>
        </mxCell>
        <mxCell id="3csDo20T_HW6M1ZZTiB5-27" value="" style="image;html=1;image=img/lib/clip_art/networking/Firewall-page1_128x128.png" vertex="1" parent="1">
          <mxGeometry x="775" y="1480" width="210" height="130" as="geometry" />
        </mxCell>
        <mxCell id="3csDo20T_HW6M1ZZTiB5-30" value="&lt;font face=&quot;Comic Sans MS&quot; style=&quot;font-size: 18px;&quot;&gt;Firewall&lt;/font&gt;" style="text;strokeColor=none;align=center;fillColor=none;html=1;verticalAlign=middle;whiteSpace=wrap;rounded=0;" vertex="1" parent="1">
          <mxGeometry x="790" y="1630" width="160" height="30" as="geometry" />
        </mxCell>
        <mxCell id="3csDo20T_HW6M1ZZTiB5-33" value="" style="verticalLabelPosition=bottom;html=1;verticalAlign=top;align=center;strokeColor=none;fillColor=#00BEF2;shape=mxgraph.azure.cloud;" vertex="1" parent="1">
          <mxGeometry x="-149.45" y="1354.5" width="470" height="381" as="geometry" />
        </mxCell>
        <mxCell id="3csDo20T_HW6M1ZZTiB5-34" style="edgeStyle=orthogonalEdgeStyle;rounded=0;orthogonalLoop=1;jettySize=auto;html=1;entryX=0.89;entryY=0.5;entryDx=0;entryDy=0;entryPerimeter=0;" edge="1" parent="1" source="3csDo20T_HW6M1ZZTiB5-27" target="3csDo20T_HW6M1ZZTiB5-33">
          <mxGeometry relative="1" as="geometry" />
        </mxCell>
        <mxCell id="3csDo20T_HW6M1ZZTiB5-35" value="&lt;font face=&quot;Comic Sans MS&quot; style=&quot;font-size: 24px;&quot;&gt;Azure Virtual Resources&lt;/font&gt;" style="text;strokeColor=none;align=center;fillColor=none;html=1;verticalAlign=middle;whiteSpace=wrap;rounded=0;" vertex="1" parent="1">
          <mxGeometry x="-96.67" y="1750" width="364.44" height="130" as="geometry" />
        </mxCell>
        <mxCell id="3csDo20T_HW6M1ZZTiB5-45" style="edgeStyle=orthogonalEdgeStyle;rounded=0;orthogonalLoop=1;jettySize=auto;html=1;" edge="1" parent="1" source="3csDo20T_HW6M1ZZTiB5-36" target="3csDo20T_HW6M1ZZTiB5-33">
          <mxGeometry relative="1" as="geometry" />
        </mxCell>
        <mxCell id="3csDo20T_HW6M1ZZTiB5-36" value="" style="ellipse;whiteSpace=wrap;html=1;verticalAlign=top;fillColor=#00BEF2;strokeColor=none;" vertex="1" parent="1">
          <mxGeometry x="-1040" y="1070" width="230" height="200" as="geometry" />
        </mxCell>
        <mxCell id="3csDo20T_HW6M1ZZTiB5-38" value="&lt;font face=&quot;Comic Sans MS&quot;&gt;&lt;span style=&quot;font-size: 18px;&quot;&gt;Private DMZ Database Servers&lt;/span&gt;&lt;/font&gt;" style="text;strokeColor=none;align=center;fillColor=none;html=1;verticalAlign=middle;whiteSpace=wrap;rounded=0;" vertex="1" parent="1">
          <mxGeometry x="-1005" y="1310" width="160" height="30" as="geometry" />
        </mxCell>
        <mxCell id="3csDo20T_HW6M1ZZTiB5-44" style="edgeStyle=orthogonalEdgeStyle;rounded=0;orthogonalLoop=1;jettySize=auto;html=1;" edge="1" parent="1" source="3csDo20T_HW6M1ZZTiB5-39" target="3csDo20T_HW6M1ZZTiB5-33">
          <mxGeometry relative="1" as="geometry" />
        </mxCell>
        <mxCell id="3csDo20T_HW6M1ZZTiB5-83" style="edgeStyle=orthogonalEdgeStyle;rounded=0;orthogonalLoop=1;jettySize=auto;html=1;" edge="1" parent="1" source="3csDo20T_HW6M1ZZTiB5-39" target="3csDo20T_HW6M1ZZTiB5-78">
          <mxGeometry relative="1" as="geometry">
            <Array as="points">
              <mxPoint x="-1560" y="1610" />
              <mxPoint x="-1560" y="1610" />
            </Array>
          </mxGeometry>
        </mxCell>
        <mxCell id="3csDo20T_HW6M1ZZTiB5-39" value="" style="ellipse;whiteSpace=wrap;html=1;verticalAlign=top;fillColor=#00BEF2;strokeColor=none;" vertex="1" parent="1">
          <mxGeometry x="-1040" y="1510" width="230" height="200" as="geometry" />
        </mxCell>
        <mxCell id="3csDo20T_HW6M1ZZTiB5-40" value="&lt;div style=&quot;text-align: center;&quot;&gt;&lt;span style=&quot;background-color: initial; font-size: 18px;&quot;&gt;&lt;font face=&quot;Comic Sans MS&quot;&gt;&amp;nbsp; &amp;nbsp; &amp;nbsp; &amp;nbsp; Management Servers&amp;nbsp;&lt;/font&gt;&lt;/span&gt;&lt;/div&gt;" style="text;whiteSpace=wrap;html=1;" vertex="1" parent="1">
          <mxGeometry x="-1075" y="1710" width="300" height="50" as="geometry" />
        </mxCell>
        <mxCell id="3csDo20T_HW6M1ZZTiB5-85" style="edgeStyle=orthogonalEdgeStyle;rounded=0;orthogonalLoop=1;jettySize=auto;html=1;" edge="1" parent="1" source="3csDo20T_HW6M1ZZTiB5-41">
          <mxGeometry relative="1" as="geometry">
            <mxPoint x="-1740" y="1860" as="targetPoint" />
            <Array as="points">
              <mxPoint x="-925" y="1890" />
              <mxPoint x="-1739" y="1890" />
            </Array>
          </mxGeometry>
        </mxCell>
        <mxCell id="3csDo20T_HW6M1ZZTiB5-41" value="" style="ellipse;whiteSpace=wrap;html=1;verticalAlign=top;fillColor=#00BEF2;strokeColor=none;" vertex="1" parent="1">
          <mxGeometry x="-1040" y="2010" width="230" height="200" as="geometry" />
        </mxCell>
        <mxCell id="3csDo20T_HW6M1ZZTiB5-42" value="&lt;div style=&quot;text-align: center;&quot;&gt;&lt;font face=&quot;Comic Sans MS&quot;&gt;&lt;span style=&quot;font-size: 18px;&quot;&gt;Internal Workstations/Resources&lt;/span&gt;&lt;/font&gt;&lt;/div&gt;" style="text;whiteSpace=wrap;html=1;" vertex="1" parent="1">
          <mxGeometry x="-1075" y="2240" width="300" height="50" as="geometry" />
        </mxCell>
        <mxCell id="3csDo20T_HW6M1ZZTiB5-43" style="edgeStyle=orthogonalEdgeStyle;rounded=0;orthogonalLoop=1;jettySize=auto;html=1;entryX=0.5;entryY=1;entryDx=0;entryDy=0;entryPerimeter=0;" edge="1" parent="1" source="3csDo20T_HW6M1ZZTiB5-41" target="3csDo20T_HW6M1ZZTiB5-33">
          <mxGeometry relative="1" as="geometry" />
        </mxCell>
        <mxCell id="3csDo20T_HW6M1ZZTiB5-46" value="&lt;font style=&quot;font-size: 18px;&quot; face=&quot;Comic Sans MS&quot;&gt;Trusted Connection Layer 3&lt;/font&gt;" style="text;strokeColor=none;align=center;fillColor=none;html=1;verticalAlign=middle;whiteSpace=wrap;rounded=0;" vertex="1" parent="1">
          <mxGeometry x="-590" y="1120" width="210" height="30" as="geometry" />
        </mxCell>
        <mxCell id="3csDo20T_HW6M1ZZTiB5-48" value="&lt;font style=&quot;font-size: 18px;&quot; face=&quot;Comic Sans MS&quot;&gt;Trusted Connection Layer 3&lt;/font&gt;" style="text;strokeColor=none;align=center;fillColor=none;html=1;verticalAlign=middle;whiteSpace=wrap;rounded=0;" vertex="1" parent="1">
          <mxGeometry x="-490" y="1510" width="210" height="30" as="geometry" />
        </mxCell>
        <mxCell id="3csDo20T_HW6M1ZZTiB5-49" value="&lt;font style=&quot;font-size: 18px;&quot; face=&quot;Comic Sans MS&quot;&gt;Trusted Connection Layer 3&lt;/font&gt;" style="text;strokeColor=none;align=center;fillColor=none;html=1;verticalAlign=middle;whiteSpace=wrap;rounded=0;" vertex="1" parent="1">
          <mxGeometry x="-550" y="2070" width="210" height="30" as="geometry" />
        </mxCell>
        <mxCell id="3csDo20T_HW6M1ZZTiB5-50" value="&lt;font style=&quot;font-size: 18px;&quot; face=&quot;Comic Sans MS&quot;&gt;Untrusted Connection Layer 2&lt;/font&gt;" style="text;strokeColor=none;align=center;fillColor=none;html=1;verticalAlign=middle;whiteSpace=wrap;rounded=0;" vertex="1" parent="1">
          <mxGeometry x="430" y="1510" width="210" height="30" as="geometry" />
        </mxCell>
        <mxCell id="3csDo20T_HW6M1ZZTiB5-51" value="&lt;font style=&quot;font-size: 24px;&quot; face=&quot;Comic Sans MS&quot;&gt;Azure IDS/IPS Detection and Response Check Point&lt;/font&gt;" style="text;strokeColor=none;align=center;fillColor=none;html=1;verticalAlign=middle;whiteSpace=wrap;rounded=0;" vertex="1" parent="1">
          <mxGeometry x="50" y="1550" width="60" height="30" as="geometry" />
        </mxCell>
        <mxCell id="3csDo20T_HW6M1ZZTiB5-57" style="edgeStyle=orthogonalEdgeStyle;rounded=0;orthogonalLoop=1;jettySize=auto;html=1;entryX=0.5;entryY=1;entryDx=0;entryDy=0;" edge="1" parent="1">
          <mxGeometry relative="1" as="geometry">
            <mxPoint x="130.00000000000017" y="760" as="sourcePoint" />
            <mxPoint x="130.00499999999937" y="410" as="targetPoint" />
          </mxGeometry>
        </mxCell>
        <mxCell id="3csDo20T_HW6M1ZZTiB5-67" style="edgeStyle=orthogonalEdgeStyle;rounded=0;orthogonalLoop=1;jettySize=auto;html=1;entryX=0;entryY=0.5;entryDx=0;entryDy=0;" edge="1" parent="1" source="3csDo20T_HW6M1ZZTiB5-53" target="3csDo20T_HW6M1ZZTiB5-66">
          <mxGeometry relative="1" as="geometry" />
        </mxCell>
        <mxCell id="3csDo20T_HW6M1ZZTiB5-53" value="" style="ellipse;whiteSpace=wrap;html=1;verticalAlign=top;labelBackgroundColor=default;shadow=0;dashed=0;spacingTop=3;" vertex="1" parent="1">
          <mxGeometry x="-84.45" y="760" width="340" height="270" as="geometry" />
        </mxCell>
        <mxCell id="3csDo20T_HW6M1ZZTiB5-55" value="&lt;font style=&quot;font-size: 24px;&quot; face=&quot;Comic Sans MS&quot;&gt;Public Zone Point (Web Servers)&lt;/font&gt;" style="text;strokeColor=none;align=center;fillColor=none;html=1;verticalAlign=middle;whiteSpace=wrap;rounded=0;" vertex="1" parent="1">
          <mxGeometry x="55.55" y="880" width="60" height="30" as="geometry" />
        </mxCell>
        <mxCell id="3csDo20T_HW6M1ZZTiB5-58" value="&lt;font style=&quot;font-size: 18px;&quot; face=&quot;Comic Sans MS&quot;&gt;https&amp;nbsp;&lt;/font&gt;&lt;div&gt;&lt;font style=&quot;font-size: 18px;&quot; face=&quot;Comic Sans MS&quot;&gt;connection&lt;/font&gt;&lt;/div&gt;" style="text;strokeColor=none;align=center;fillColor=none;html=1;verticalAlign=middle;whiteSpace=wrap;rounded=0;" vertex="1" parent="1">
          <mxGeometry x="-39" y="591" width="210" height="30" as="geometry" />
        </mxCell>
        <mxCell id="3csDo20T_HW6M1ZZTiB5-60" value="&lt;font style=&quot;font-size: 18px;&quot; face=&quot;Comic Sans MS&quot;&gt;Untrusted Connection Layer 1&lt;/font&gt;" style="text;strokeColor=none;align=center;fillColor=none;html=1;verticalAlign=middle;whiteSpace=wrap;rounded=0;rotation=-90;" vertex="1" parent="1">
          <mxGeometry x="-120" y="590" width="210" height="30" as="geometry" />
        </mxCell>
        <mxCell id="3csDo20T_HW6M1ZZTiB5-62" value="&lt;font style=&quot;font-size: 18px;&quot; face=&quot;Comic Sans MS&quot;&gt;Untrusted Connection Layer 1&lt;/font&gt;" style="text;strokeColor=none;align=center;fillColor=none;html=1;verticalAlign=middle;whiteSpace=wrap;rounded=0;rotation=90;" vertex="1" parent="1">
          <mxGeometry x="55.55" y="591" width="210" height="30" as="geometry" />
        </mxCell>
        <mxCell id="3csDo20T_HW6M1ZZTiB5-72" style="edgeStyle=orthogonalEdgeStyle;rounded=0;orthogonalLoop=1;jettySize=auto;html=1;entryX=0.5;entryY=0;entryDx=0;entryDy=0;" edge="1" parent="1" source="3csDo20T_HW6M1ZZTiB5-65" target="3csDo20T_HW6M1ZZTiB5-69">
          <mxGeometry relative="1" as="geometry" />
        </mxCell>
        <mxCell id="3csDo20T_HW6M1ZZTiB5-65" value="" style="rhombus;whiteSpace=wrap;html=1;verticalAlign=top;sketch=0;pointerEvents=1;rounded=1;" vertex="1" parent="1">
          <mxGeometry x="460" y="811" width="200" height="168" as="geometry" />
        </mxCell>
        <mxCell id="3csDo20T_HW6M1ZZTiB5-66" value="&lt;font face=&quot;Comic Sans MS&quot;&gt;&lt;span style=&quot;font-size: 18px;&quot;&gt;Policy Enforcerment Point&amp;nbsp;&lt;/span&gt;&lt;/font&gt;" style="text;strokeColor=none;align=center;fillColor=none;html=1;verticalAlign=middle;whiteSpace=wrap;rounded=0;" vertex="1" parent="1">
          <mxGeometry x="470" y="885" width="180" height="20" as="geometry" />
        </mxCell>
        <mxCell id="3csDo20T_HW6M1ZZTiB5-69" value="" style="image;html=1;image=img/lib/clip_art/networking/Firewall-page1_128x128.png" vertex="1" parent="1">
          <mxGeometry x="455" y="1150" width="210" height="130" as="geometry" />
        </mxCell>
        <mxCell id="3csDo20T_HW6M1ZZTiB5-70" value="&lt;font face=&quot;Comic Sans MS&quot; style=&quot;font-size: 18px;&quot;&gt;Firewall&lt;/font&gt;" style="text;strokeColor=none;align=center;fillColor=none;html=1;verticalAlign=middle;whiteSpace=wrap;rounded=0;" vertex="1" parent="1">
          <mxGeometry x="470" y="1280" width="160" height="30" as="geometry" />
        </mxCell>
        <mxCell id="3csDo20T_HW6M1ZZTiB5-71" style="edgeStyle=orthogonalEdgeStyle;rounded=0;orthogonalLoop=1;jettySize=auto;html=1;entryX=0.744;entryY=0.093;entryDx=0;entryDy=0;entryPerimeter=0;" edge="1" parent="1" source="3csDo20T_HW6M1ZZTiB5-69" target="3csDo20T_HW6M1ZZTiB5-33">
          <mxGeometry relative="1" as="geometry" />
        </mxCell>
        <mxCell id="3csDo20T_HW6M1ZZTiB5-73" value="&lt;font style=&quot;font-size: 18px;&quot; face=&quot;Comic Sans MS&quot;&gt;Untrusted Connection Layer 1&lt;/font&gt;&lt;div&gt;&lt;font style=&quot;font-size: 18px;&quot; face=&quot;Comic Sans MS&quot;&gt;&lt;br&gt;&lt;/font&gt;&lt;/div&gt;" style="text;strokeColor=none;align=center;fillColor=none;html=1;verticalAlign=middle;whiteSpace=wrap;rounded=0;rotation=0;" vertex="1" parent="1">
          <mxGeometry x="260" y="850" width="210" height="30" as="geometry" />
        </mxCell>
        <mxCell id="3csDo20T_HW6M1ZZTiB5-74" value="&lt;font style=&quot;font-size: 18px;&quot; face=&quot;Comic Sans MS&quot;&gt;Untrusted Connection Layer 2&lt;/font&gt;" style="text;strokeColor=none;align=center;fillColor=none;html=1;verticalAlign=middle;whiteSpace=wrap;rounded=0;" vertex="1" parent="1">
          <mxGeometry x="241" y="1170" width="210" height="30" as="geometry" />
        </mxCell>
        <mxCell id="3csDo20T_HW6M1ZZTiB5-75" value="&lt;font style=&quot;font-size: 18px;&quot; face=&quot;Comic Sans MS&quot;&gt;Untrusted Connection Layer 1&lt;/font&gt;&lt;div&gt;&lt;font style=&quot;font-size: 18px;&quot; face=&quot;Comic Sans MS&quot;&gt;&lt;br&gt;&lt;/font&gt;&lt;/div&gt;" style="text;strokeColor=none;align=center;fillColor=none;html=1;verticalAlign=middle;whiteSpace=wrap;rounded=0;rotation=90;" vertex="1" parent="1">
          <mxGeometry x="490" y="1050" width="210" height="30" as="geometry" />
        </mxCell>
        <mxCell id="3csDo20T_HW6M1ZZTiB5-76" value="&lt;font style=&quot;font-size: 18px;&quot; face=&quot;Comic Sans MS&quot;&gt;Untrusted Connection Layer 2&lt;/font&gt;" style="text;strokeColor=none;align=center;fillColor=none;html=1;verticalAlign=middle;whiteSpace=wrap;rounded=0;rotation=-90;" vertex="1" parent="1">
          <mxGeometry x="776" y="1324.5" width="210" height="30" as="geometry" />
        </mxCell>
        <mxCell id="3csDo20T_HW6M1ZZTiB5-81" style="edgeStyle=orthogonalEdgeStyle;rounded=0;orthogonalLoop=1;jettySize=auto;html=1;entryX=0;entryY=0.5;entryDx=0;entryDy=0;" edge="1" parent="1" source="3csDo20T_HW6M1ZZTiB5-78" target="3csDo20T_HW6M1ZZTiB5-36">
          <mxGeometry relative="1" as="geometry">
            <Array as="points">
              <mxPoint x="-1945" y="1170" />
            </Array>
          </mxGeometry>
        </mxCell>
        <mxCell id="3csDo20T_HW6M1ZZTiB5-78" value="" style="outlineConnect=0;dashed=0;verticalLabelPosition=bottom;verticalAlign=top;align=center;html=1;shape=mxgraph.aws3.data_encryption_key;fillColor=#7D7C7C;gradientColor=none;" vertex="1" parent="1">
          <mxGeometry x="-2150" y="1440" width="410" height="410" as="geometry" />
        </mxCell>
        <mxCell id="3csDo20T_HW6M1ZZTiB5-82" style="edgeStyle=orthogonalEdgeStyle;rounded=0;orthogonalLoop=1;jettySize=auto;html=1;entryX=0;entryY=0.5;entryDx=0;entryDy=0;" edge="1" parent="1" source="3csDo20T_HW6M1ZZTiB5-79" target="3csDo20T_HW6M1ZZTiB5-41">
          <mxGeometry relative="1" as="geometry">
            <Array as="points">
              <mxPoint x="-1960" y="2110" />
            </Array>
          </mxGeometry>
        </mxCell>
        <mxCell id="3csDo20T_HW6M1ZZTiB5-79" value="&lt;div style=&quot;text-align: center;&quot;&gt;&lt;span style=&quot;background-color: initial; font-size: 18px;&quot;&gt;&lt;font face=&quot;Comic Sans MS&quot;&gt;Data Encryption Point (At Rest and Deployment)&lt;/font&gt;&lt;/span&gt;&lt;/div&gt;" style="text;whiteSpace=wrap;html=1;" vertex="1" parent="1">
          <mxGeometry x="-2110" y="1860" width="300" height="50" as="geometry" />
        </mxCell>
        <mxCell id="3csDo20T_HW6M1ZZTiB5-80" style="edgeStyle=orthogonalEdgeStyle;rounded=0;orthogonalLoop=1;jettySize=auto;html=1;entryX=0.022;entryY=0.678;entryDx=0;entryDy=0;entryPerimeter=0;" edge="1" parent="1" source="3csDo20T_HW6M1ZZTiB5-78" target="3csDo20T_HW6M1ZZTiB5-39">
          <mxGeometry relative="1" as="geometry" />
        </mxCell>
        <mxCell id="3csDo20T_HW6M1ZZTiB5-84" style="edgeStyle=orthogonalEdgeStyle;rounded=0;orthogonalLoop=1;jettySize=auto;html=1;entryX=0.98;entryY=0.02;entryDx=0;entryDy=0;entryPerimeter=0;" edge="1" parent="1" source="3csDo20T_HW6M1ZZTiB5-36" target="3csDo20T_HW6M1ZZTiB5-78">
          <mxGeometry relative="1" as="geometry">
            <Array as="points">
              <mxPoint x="-925" y="1310" />
              <mxPoint x="-1748" y="1310" />
            </Array>
          </mxGeometry>
        </mxCell>
        <mxCell id="3csDo20T_HW6M1ZZTiB5-86" value="&lt;font style=&quot;font-size: 18px;&quot; face=&quot;Comic Sans MS&quot;&gt;Internal Connection Layer 4&lt;/font&gt;" style="text;strokeColor=none;align=center;fillColor=none;html=1;verticalAlign=middle;whiteSpace=wrap;rounded=0;" vertex="1" parent="1">
          <mxGeometry x="-1680" y="1140" width="210" height="30" as="geometry" />
        </mxCell>
        <mxCell id="3csDo20T_HW6M1ZZTiB5-87" value="&lt;font style=&quot;font-size: 18px;&quot; face=&quot;Comic Sans MS&quot;&gt;Internal Connection Layer 4&lt;/font&gt;" style="text;strokeColor=none;align=center;fillColor=none;html=1;verticalAlign=middle;whiteSpace=wrap;rounded=0;" vertex="1" parent="1">
          <mxGeometry x="-1620" y="1275" width="210" height="30" as="geometry" />
        </mxCell>
        <mxCell id="3csDo20T_HW6M1ZZTiB5-88" value="&lt;font style=&quot;font-size: 18px;&quot; face=&quot;Comic Sans MS&quot;&gt;Internal Connection Layer 4&lt;/font&gt;" style="text;strokeColor=none;align=center;fillColor=none;html=1;verticalAlign=middle;whiteSpace=wrap;rounded=0;" vertex="1" parent="1">
          <mxGeometry x="-1660" y="2070" width="210" height="30" as="geometry" />
        </mxCell>
        <mxCell id="3csDo20T_HW6M1ZZTiB5-89" value="&lt;font style=&quot;font-size: 18px;&quot; face=&quot;Comic Sans MS&quot;&gt;Internal Connection Layer 4&lt;/font&gt;" style="text;strokeColor=none;align=center;fillColor=none;html=1;verticalAlign=middle;whiteSpace=wrap;rounded=0;" vertex="1" parent="1">
          <mxGeometry x="-1530" y="1660" width="210" height="30" as="geometry" />
        </mxCell>
        <mxCell id="3csDo20T_HW6M1ZZTiB5-91" value="&lt;font style=&quot;font-size: 18px;&quot; face=&quot;Comic Sans MS&quot;&gt;Internal Connection Layer 4&lt;/font&gt;" style="text;strokeColor=none;align=center;fillColor=none;html=1;verticalAlign=middle;whiteSpace=wrap;rounded=0;" vertex="1" parent="1">
          <mxGeometry x="-1510" y="1850" width="210" height="30" as="geometry" />
        </mxCell>
        <mxCell id="3csDo20T_HW6M1ZZTiB5-92" value="&lt;font face=&quot;Comic Sans MS&quot;&gt;&lt;span style=&quot;font-size: 18px;&quot;&gt;Encryption Connection&lt;/span&gt;&lt;/font&gt;" style="text;strokeColor=none;align=center;fillColor=none;html=1;verticalAlign=middle;whiteSpace=wrap;rounded=0;rotation=-90;" vertex="1" parent="1">
          <mxGeometry x="730" y="570" width="210" height="30" as="geometry" />
        </mxCell>
        <mxCell id="3csDo20T_HW6M1ZZTiB5-93" value="&lt;font face=&quot;Comic Sans MS&quot;&gt;&lt;span style=&quot;font-size: 18px;&quot;&gt;Encryption Connection&lt;/span&gt;&lt;/font&gt;" style="text;strokeColor=none;align=center;fillColor=none;html=1;verticalAlign=middle;whiteSpace=wrap;rounded=0;rotation=90;" vertex="1" parent="1">
          <mxGeometry x="810.5" y="900" width="210" height="30" as="geometry" />
        </mxCell>
      </root>
    </mxGraphModel>
  </diagram>
</mxfile>
